# xmcd
#
# Track frame offsets: 
#        150
#        15786
#        36860
#        55721
#        73751
#        94535
#        110357
#        132793
#        148515
#        164043
#        183828
#
# Disc length: 2921 seconds
#
# Revision: 0
# Processed by: cddbd v1.5.2PL0 Copyright (c) Steve Scherf et al.
# Submitted via: ExactAudioCopy v0.99pb5
#
DISCID=890b670b
DTITLE=The Broken Family Band - Hello Love
DYEAR=2007
DGENRE=Alt Country
TTITLE0=Leaps
TTITLE1=Love Your Man, Love Your Woman
TTITLE2=So Many Lovers
TTITLE3=Julian
TTITLE4=Don't Change Your Mind
TTITLE5=Dancing On The 4th Floor
TTITLE6=You Get Me
TTITLE7=Hey Captain
TTITLE8=Give And Take
TTITLE9=Little Justice
TTITLE10=Seven Sisters
EXTD=
EXTT0=
EXTT1=
EXTT2=
EXTT3=
EXTT4=
EXTT5=
EXTT6=
EXTT7=
EXTT8=
EXTT9=
EXTT10=
PLAYORDER=
